# xmcd
#
# Track frame offsets: 
#        150
#        16750
#        28982
#        46467
#        59529
#        77283
#        95768
#        111518
#        130086
#        144617
#
# Disc length: 2138 seconds
#
# Revision: 0
# Processed by: cddbd v1.5.2PL0 Copyright (c) Steve Scherf et al.
# Submitted via: ExactAudioCopy v0.95b4
#
DISCID=8708580a
DTITLE=Boss Volenti - Boss Volenti
DYEAR=2006
DGENRE=Jazz
TTITLE0=Ain't No Use
TTITLE1=Opposite Directions
TTITLE2=Nine Point Eight
TTITLE3=Deeper Than Deep
TTITLE4=The Gun
TTITLE5=The Range
TTITLE6=L.I.B
TTITLE7=Shot
TTITLE8=Roll It Into Shape
TTITLE9=Can't Seem To Find A Way
EXTD=
EXTT0=
EXTT1=
EXTT2=
EXTT3=
EXTT4=
EXTT5=
EXTT6=
EXTT7=
EXTT8=
EXTT9=
PLAYORDER=
